# xmcd CD database file
#
# Track frame offsets:
#	150
#	25765
#	40730
#	73845
#	87082
#	112771
#	130806
#	159589
#	176132
#	188247
#	214088
#	233249
#	251372
#	264909
#
# Disc length: 3764 seconds
#
# Revision: 1
# Processed by: cddbd v1.4PL0 Copyright (c) Steve Scherf et al.
# Submitted via: CDex 1.50Beta7
#
DISCID=b50eb20e
DTITLE=Lin Mao-Ken - Chaochow Zheng Music
DYEAR=1997
DGENRE=New Age
TTITLE0=Looking Forward To People Life
TTITLE1=Complaint About The Loneliness
TTITLE2=Ducks Swimming In The Pond
TTITLE3=Kao-Chiang-Lung
TTITLE4=Raining Over The Pear-Flower
TTITLE5=Riding A Donkey With The Back Ahead
TTITLE6=The Pink Lotus
TTITLE7=Asking By Way Of Sortilege
TTITLE8=In Praise Of The Nan-Hai
TTITLE9=The Newly Peach Blossoms
TTITLE10=Tzu-Ka
TTITLE11=The Wild Geese Flying Southern Way
TTITLE12=Be Peaceful All Over The World
TTITLE13=Lady Named Liu Ching-Niang
EXTD=YEAR: 1997
EXTT0=
EXTT1=
EXTT2=
EXTT3=
EXTT4=
EXTT5=
EXTT6=
EXTT7=
EXTT8=
EXTT9=
EXTT10=
EXTT11=
EXTT12=
EXTT13=
PLAYORDER=
